<?xml version="1.0" encoding="UTF-8"?><!DOCTYPE svg PUBLIC "-//W3C//DTD SVG 1.1//EN" "http://www.w3.org/Graphics/SVG/1.1/DTD/svg11.dtd"><svg xmlns="http://www.w3.org/2000/svg" xmlns:xlink="http://www.w3.org/1999/xlink"><symbol id="cloudy" viewBox="0 0 24 24">
<path d="M17 19h-11c-2.206 0-4-1.794-4-4 0-1.861 1.277-3.429 3.001-3.874-0.001-0.042-0.001-0.084-0.001-0.126 0-3.309 2.691-6 6-6 2.587 0 4.824 1.638 5.65 4.015 2.942-0.246 5.35 2.113 5.35 4.985 0 2.757-2.243 5-5 5zM5.905 12.994c-1.008 0.006-1.905 0.903-1.905 2.006s0.897 2 2 2h11c1.654 0 3-1.346 3-3s-1.346-3-3-3c-0.243 0-0.5 0.041-0.81 0.13l-1.075 0.307-0.186-1.103c-0.325-1.932-1.977-3.334-3.929-3.334-2.206 0-4 1.794-4 4 0 0.272 0.027 0.545 0.082 0.811l0.244 1.199-1.421-0.016z"/>
</symbol><symbol id="downpour" viewBox="0 0 24 24">
<path d="M15 22c-0.552 0-1-0.447-1-1v-6c0-0.553 0.448-1 1-1s1 0.447 1 1v6c0 0.553-0.448 1-1 1z"/>
<path d="M9 22c-0.552 0-1-0.447-1-1v-6c0-0.553 0.448-1 1-1s1 0.447 1 1v6c0 0.553-0.448 1-1 1z"/>
<path d="M12 24c-0.552 0-1-0.447-1-1v-6c0-0.553 0.448-1 1-1s1 0.447 1 1v6c0 0.553-0.448 1-1 1z"/>
<path d="M6 18c-2.206 0-4-1.794-4-4 0-1.861 1.277-3.429 3.001-3.874-0.001-0.042-0.001-0.084-0.001-0.126 0-3.309 2.691-6 6-6 2.587 0 4.824 1.639 5.65 4.015 2.936-0.244 5.35 2.113 5.35 4.985 0 2.241-1.507 4.223-3.666 4.819-0.535 0.146-1.083-0.166-1.23-0.697-0.147-0.532 0.165-1.083 0.698-1.23 1.294-0.358 2.198-1.547 2.198-2.892 0-1.654-1.346-3-3-3-0.242 0-0.499 0.041-0.811 0.13l-1.074 0.306-0.185-1.102c-0.326-1.932-1.978-3.334-3.93-3.334-2.206 0-4 1.794-4 4 0 0.272 0.027 0.545 0.082 0.808l0.248 1.202-1.422-0.016c-1.011 0.006-1.908 0.903-1.908 2.006s0.897 2 2 2c0.552 0 1 0.447 1 1s-0.448 1-1 1z"/>
</symbol><symbol id="night" viewBox="0 0 24 24">
<path d="M10.5 20c-0.861 0-1.71-0.151-2.523-0.451l-1.317-0.485 0.89-1.087c1.275-1.56 1.95-3.454 1.95-5.477s-0.675-3.917-1.951-5.477l-0.89-1.087 1.317-0.485c0.814-0.3 1.663-0.451 2.524-0.451 4.136 0 7.5 3.364 7.5 7.5s-3.364 7.5-7.5 7.5zM9.991 17.976c0.169 0.016 0.339 0.024 0.509 0.024 3.032 0 5.5-2.468 5.5-5.5s-2.468-5.5-5.5-5.5c-0.17 0-0.34 0.008-0.509 0.024 0.991 1.645 1.509 3.511 1.509 5.476s-0.518 3.831-1.509 5.476z"/>
</symbol><symbol id="partly-sunny" viewBox="0 0 24 24">
<path d="M14.5 3l-1 3-1-3c-0.184-0.553 0.114-1.149 0.666-1.333 0.553-0.185 1.15 0.114 1.334 0.666 0.075 0.226 0.070 0.458 0 0.667z"/>
<path d="M19.864 6.050l-2.829 1.415 1.415-2.829c0.261-0.521 0.894-0.731 1.414-0.472 0.521 0.261 0.731 0.894 0.472 1.415-0.107 0.212-0.274 0.372-0.472 0.471z"/>
<path d="M21.5 12l-3-1 3-1c0.553-0.185 1.149 0.114 1.334 0.667 0.184 0.552-0.115 1.148-0.668 1.333-0.225 0.075-0.457 0.069-0.666 0z"/>
<path d="M8.55 4.636l1.415 2.829-2.829-1.415c-0.521-0.261-0.732-0.894-0.472-1.414 0.261-0.521 0.895-0.731 1.414-0.472 0.213 0.107 0.373 0.274 0.472 0.472z"/>
<path d="M17.776 12.342c0.139-0.424 0.224-0.871 0.224-1.342 0-2.481-2.019-4.5-4.5-4.5-1.34 0-2.537 0.594-3.357 1.528-0.049-0.007-0.092-0.028-0.143-0.028-1.776 0-3.369 0.78-4.469 2.011-0.24-0.080-0.472-0.086-0.697-0.011-0.553 0.185-0.852 0.781-0.668 1.333 0.057 0.167 0.158 0.299 0.277 0.411-0.283 0.697-0.443 1.458-0.443 2.256 0 0.042 0 0.084 0.002 0.126-1.725 0.445-3.002 2.013-3.002 3.874 0 2.206 1.795 4 4 4h11c2.757 0 5-2.243 5-5 0-2.129-1.344-3.939-3.224-4.658zM13.5 8.5c1.379 0 2.5 1.121 2.5 2.5 0 0.366-0.096 0.706-0.238 1.019-0.354 0.021-0.72 0.074-1.118 0.188-0.521-1.353-1.604-2.415-2.967-2.905 0.456-0.49 1.102-0.802 1.823-0.802zM16 20h-11c-1.104 0-2-0.897-2-2s0.896-2 1.908-2.006l1.422 0.016-0.248-1.202c-0.055-0.263-0.082-0.536-0.082-0.808 0-2.206 1.795-4 4-4 0.024 0 0.045-0.013 0.069-0.014 1.904 0.055 3.495 1.406 3.847 3.27 0.031 0.078 0.022 0.131 0.038 0.186 0.123 0.436 0.517 0.706 0.946 0.712 0.106-0.001 0.197 0.003 0.289-0.023 0.312-0.090 0.569-0.131 0.811-0.131 1.654 0 3 1.346 3 3s-1.346 3-3 3z"/>
</symbol><symbol id="shower" viewBox="0 0 24 24">
<path d="M17 18c-0.552 0-1-0.447-1-1s0.448-1 1-1c1.654 0 3-1.346 3-3s-1.346-3-3-3c-0.243 0-0.5 0.041-0.81 0.13l-1.075 0.307-0.185-1.103c-0.326-1.932-1.978-3.334-3.93-3.334-2.206 0-4 1.794-4 4 0 0.272 0.027 0.545 0.082 0.811l0.244 1.199-1.42-0.016c-1.009 0.006-1.906 0.903-1.906 2.006s0.897 2 2 2c0.552 0 1 0.447 1 1s-0.448 1-1 1c-2.206 0-4-1.794-4-4 0-1.861 1.277-3.429 3.001-3.874-0.001-0.042-0.001-0.084-0.001-0.126 0-3.309 2.691-6 6-6 2.587 0 4.824 1.638 5.65 4.015 2.939-0.244 5.35 2.113 5.35 4.985 0 2.757-2.243 5-5 5z"/>
<path d="M10.5 18l1-3 1 3c0.184 0.553-0.114 1.149-0.667 1.333-0.552 0.185-1.149-0.114-1.333-0.666-0.075-0.226-0.070-0.458 0-0.667z"/>
<path d="M13.5 20l1-3 1 3c0.184 0.553-0.114 1.149-0.667 1.333-0.552 0.185-1.149-0.114-1.333-0.666-0.075-0.226-0.070-0.458 0-0.667z"/>
<path d="M7.5 20l1-3 1 3c0.184 0.553-0.114 1.149-0.667 1.333-0.552 0.185-1.149-0.114-1.333-0.666-0.075-0.226-0.070-0.458 0-0.667z"/>
</symbol><symbol id="snow" viewBox="0 0 24 24">
<path d="M20.5 15.134l-2.457-0.503 1.483-0.396c0.533-0.143 0.85-0.69 0.707-1.225-0.142-0.533-0.689-0.85-1.225-0.707l-1.508 0.403c0.037-0.231 0.071-0.464 0.071-0.706s-0.034-0.476-0.071-0.707l1.51 0.404c0.087 0.023 0.174 0.034 0.26 0.034 0.441 0 0.846-0.295 0.965-0.741 0.143-0.533-0.174-1.082-0.707-1.225l-1.483-0.397 2.455-0.502c0.216-0.044 0.42-0.156 0.577-0.333 0.386-0.436 0.347-1.102-0.089-1.488s-1.102-0.347-1.488 0.089l-1.663 1.874 0.398-1.479c0.144-0.533-0.173-1.082-0.706-1.226-0.531-0.142-1.082 0.173-1.226 0.706l-0.407 1.517c-0.366-0.299-0.771-0.544-1.219-0.717l1.102-1.102c0.391-0.391 0.391-1.023 0-1.414s-1.023-0.391-1.414 0l-1.086 1.086 0.793-2.379c0.069-0.209 0.075-0.441 0-0.667-0.184-0.552-0.781-0.851-1.333-0.666s-0.85 0.78-0.667 1.333l0.793 2.379-1.086-1.086c-0.391-0.391-1.023-0.391-1.414 0s-0.391 1.023 0 1.414l1.102 1.102c-0.447 0.173-0.853 0.419-1.219 0.717l-0.405-1.515c-0.143-0.534-0.697-0.852-1.224-0.708-0.534 0.143-0.851 0.69-0.708 1.224l0.396 1.485-1.662-1.877c-0.146-0.164-0.345-0.285-0.578-0.333-0.57-0.117-1.127 0.25-1.244 0.82s0.251 1.128 0.822 1.245l2.454 0.503-1.48 0.396c-0.533 0.143-0.85 0.691-0.707 1.225 0.119 0.447 0.523 0.741 0.965 0.741 0.086 0 0.173-0.011 0.26-0.034l1.508-0.404c-0.039 0.231-0.073 0.465-0.073 0.706s0.034 0.475 0.071 0.707l-1.508-0.404c-0.532-0.142-1.081 0.173-1.225 0.707-0.144 0.533 0.174 1.082 0.707 1.225l1.483 0.397-2.455 0.502c-0.216 0.044-0.42 0.156-0.577 0.334-0.387 0.436-0.347 1.102 0.089 1.487 0.436 0.387 1.103 0.347 1.488-0.089l1.665-1.878-0.398 1.484c-0.144 0.533 0.173 1.082 0.707 1.225 0.087 0.023 0.174 0.034 0.26 0.034 0.441 0 0.845-0.294 0.965-0.741l0.406-1.515c0.366 0.298 0.771 0.544 1.22 0.716l-1.104 1.102c-0.391 0.39-0.391 1.023 0 1.414s1.023 0.391 1.414 0l0.706-0.707h0.252l-0.666 1.999c-0.069 0.209-0.075 0.441 0 0.667 0.184 0.552 0.781 0.851 1.333 0.666 0.553-0.184 0.851-0.78 0.667-1.333l-0.666-1.999h0.252l0.707 0.707c0.196 0.195 0.451 0.293 0.707 0.293s0.512-0.098 0.707-0.293c0.391-0.39 0.391-1.023 0-1.414l-1.102-1.103c0.448-0.172 0.854-0.418 1.22-0.717l0.406 1.517c0.12 0.447 0.523 0.741 0.965 0.741 0.086 0 0.173-0.011 0.26-0.034 0.533-0.143 0.851-0.691 0.707-1.225l-0.397-1.48 1.662 1.874c0.146 0.165 0.345 0.285 0.577 0.333 0.57 0.117 1.128-0.251 1.244-0.821 0.117-0.57-0.251-1.127-0.821-1.244zM13.072 14.5c-1.379 0-2.5-1.121-2.5-2.5s1.121-2.5 2.5-2.5 2.5 1.121 2.5 2.5-1.121 2.5-2.5 2.5z"/>
</symbol><symbol id="stormy" viewBox="0 0 24 24">
<path d="M17 18c-0.553 0-1-0.447-1-1s0.447-1 1-1c1.654 0 3-1.346 3-3s-1.346-3-3-3c-0.238 0-0.496 0.042-0.813 0.131l-1.071 0.301-0.186-1.098c-0.326-1.932-1.979-3.334-3.93-3.334-2.205 0-4 1.794-4 4 0 0.274 0.027 0.545 0.082 0.806l0.26 1.24-1.436-0.052c-1.010 0.006-1.906 0.903-1.906 2.006s0.896 2 2 2c0.553 0 1 0.447 1 1s-0.447 1-1 1c-2.205 0-4-1.794-4-4 0-1.861 1.277-3.429 3.002-3.874-0.002-0.042-0.002-0.084-0.002-0.126 0-3.309 2.691-6 6-6 2.587 0 4.824 1.638 5.649 4.015 2.925-0.241 5.351 2.112 5.351 4.985 0 2.757-2.243 5-5 5z"/>
<path d="M12.639 14l-4.5 4.051 3 1.449-1.5 3.5 4.5-4.050-3-1.45z"/>
</symbol><symbol id="sunny" viewBox="0 0 24 24">
<path d="M13 4l-1 2.934-1-2.934c-0.188-0.553 0.106-1.152 0.659-1.341 0.552-0.188 1.153 0.107 1.341 0.659 0.078 0.23 0.072 0.469 0 0.682z"/>
<path d="M4 11l2.934 1-2.934 1c-0.553 0.188-1.152-0.106-1.341-0.659-0.188-0.552 0.107-1.153 0.659-1.341 0.23-0.078 0.469-0.072 0.682 0z"/>
<path d="M11 20l1-2.934 1 2.934c0.188 0.553-0.106 1.152-0.659 1.341-0.552 0.188-1.152-0.106-1.341-0.659-0.078-0.23-0.072-0.469 0-0.682z"/>
<path d="M20 12.998l-2.934-1 2.934-1c0.553-0.188 1.152 0.106 1.341 0.659 0.188 0.552-0.106 1.152-0.659 1.341-0.23 0.078-0.469 0.072-0.682 0z"/>
<path d="M7.050 5.636l1.367 2.781-2.781-1.367c-0.524-0.257-0.74-0.891-0.483-1.414 0.258-0.523 0.891-0.739 1.414-0.482 0.218 0.107 0.383 0.28 0.483 0.482z"/>
<path d="M5.636 16.949l2.781-1.367-1.367 2.781c-0.257 0.523-0.891 0.739-1.414 0.482s-0.739-0.891-0.482-1.414c0.107-0.218 0.28-0.382 0.482-0.482z"/>
<path d="M16.949 18.363l-1.367-2.781 2.781 1.367c0.523 0.257 0.739 0.891 0.482 1.414s-0.891 0.739-1.414 0.482c-0.218-0.107-0.382-0.28-0.482-0.482z"/>
<path d="M18.362 7.048l-2.782 1.368 1.368-2.782c0.257-0.523 0.891-0.739 1.414-0.482s0.739 0.891 0.481 1.415c-0.106 0.217-0.279 0.381-0.481 0.481z"/>
<path d="M12 16.5c-2.481 0-4.5-2.019-4.5-4.5s2.019-4.5 4.5-4.5 4.5 2.019 4.5 4.5-2.019 4.5-4.5 4.5zM12 9.5c-1.379 0-2.5 1.121-2.5 2.5s1.121 2.5 2.5 2.5 2.5-1.121 2.5-2.5-1.121-2.5-2.5-2.5z"/>
</symbol><symbol id="windy-cloudy" viewBox="0 0 24 24">
<path d="M4.798 15.75c-0.134 0-0.27-0.026-0.4-0.084-1.457-0.639-2.398-2.077-2.398-3.666 0-1.861 1.277-3.429 3.001-3.874-0.001-0.042-0.001-0.084-0.001-0.126 0-3.309 2.691-6 6-6 2.932 0 5.413 2.104 5.902 5.001 0.092 0.544-0.275 1.061-0.82 1.152-0.544 0.083-1.060-0.276-1.152-0.82-0.326-1.931-1.979-3.333-3.93-3.333-2.206 0-4 1.794-4 4 0 0.272 0.027 0.546 0.081 0.812l0.259 1.27-1.431-0.088c-1.012 0.006-1.909 0.903-1.909 2.006 0 0.795 0.471 1.515 1.2 1.834 0.506 0.222 0.736 0.812 0.515 1.317-0.164 0.375-0.531 0.599-0.917 0.599z"/>
<path d="M19 7c-0.553 0-1 0.447-1 1s0.447 1 1 1c0.552 0 1 0.448 1 1s-0.448 1-1 1h-9.6c-0.553 0-1 0.447-1 1s0.447 1 1 1h4.6c0.552 0 1 0.448 1 1s-0.448 1-1 1h-5c-1.654 0-3 1.346-3 3s1.346 3 3 3c0.553 0 1-0.447 1-1s-0.447-1-1-1c-0.552 0-1-0.448-1-1s0.448-1 1-1h5c1.654 0 3-1.346 3-3 0-0.353-0.072-0.686-0.185-1h2.185c1.654 0 3-1.346 3-3s-1.346-3-3-3z"/>
</symbol><symbol id="windy" viewBox="0 0 24 24">
<path d="M19 5c-0.553 0-1 0.447-1 1s0.447 1 1 1c0.552 0 1 0.448 1 1s-0.448 1-1 1h-11c-0.553 0-1 0.447-1 1s0.447 1 1 1h6c0.552 0 1 0.448 1 1s-0.448 1-1 1h-6.4c-1.654 0-3 1.346-3 3s1.346 3 3 3c0.553 0 1-0.447 1-1s-0.447-1-1-1c-0.552 0-1-0.448-1-1s0.448-1 1-1h6.4c1.654 0 3-1.346 3-3 0-0.353-0.072-0.686-0.185-1h2.185c1.654 0 3-1.346 3-3s-1.346-3-3-3z"/>
</symbol></svg>